<?xml version="1.0" encoding="UTF-8"?>
<svg id="Layer_1" xmlns="http://www.w3.org/2000/svg" version="1.1" viewBox="0 0 501.12 469.45">
  <!-- Generator: Adobe Illustrator 30.1.0, SVG Export Plug-In . SVG Version: 2.1.1 Build 136)  -->
  <path d="M427.68,230.08c0,100.29-81.29,181.59-181.56,181.59s-181.56-81.3-181.56-181.59S145.85,48.5,246.12,48.5s181.56,81.3,181.56,181.59ZM423.39,230.08c0-97.92-79.36-177.29-177.27-177.29S68.86,132.17,68.86,230.08s79.36,177.29,177.27,177.29,177.27-79.38,177.27-177.29Z"/>
  <path d="M413.46,230.08c0,92.44-74.92,167.37-167.35,167.37s-167.35-74.93-167.35-167.37S153.69,62.72,246.11,62.72s167.35,74.93,167.35,167.37ZM299.9,316.26c-2.94.14-4.52,2.2-4.4,4.84.9,20.72,1.22,39.15-1.72,59.89,1.26,1.05,2.94.5,4.46-.03,40.22-14.03,70.57-40.87,90.39-78.44,1.4-2.66.73-5.68-1.05-8.05-10.93-14.62-21.49-29.3-31.53-44.7-19.98-30.67-37.11-62.95-50.77-96.93-8.28-20.6-14.52-41.65-18.66-63.28-.27-1.39-1.41-2.45-2.23-2.73s-2.49-.05-3.25.68c-5.18,4.99-10.71,9.29-15.48,14.8-8.39,9.71-15.13,20.42-20.92,31.92-19.98,39.67-19.4,81.89-5.54,123.4,2.51,7.52,5.59,14.29,10.03,20.78,8.01,11.69,19.7,19.59,33.69,22.49,11.68,2.42,23.57,2.34,35.26-.27,8.65-1.93,16.2-5.89,23.76-10.08,3.81-2.11,7.48-.9,9.4,2.74,1.55,2.94,1.33,6.16-1.7,8.24-8.56,5.86-18.22,9.76-28.44,12.16-7.03,1.65-13.85,2.22-21.29,2.57ZM180.42,291.2c-12.4-3.34-23.35-9-33.41-16.67-20.99-16.01-35.5-39.04-41.01-64.88-4.25-19.96-3.12-40.9,8.23-58.14,10.57-16.07,28.53-24.76,47.75-23.01,19.85,1.81,36.35,11.57,51.05,24.38,1.99,1.74,5.87,5.58,7.84,4.33.57-.36,1.22-1.28,1.55-2.23l4.48-13.21c1.26-3.72.47-7.72-2.66-10.22-8.29-6.63-17.02-12.19-26.6-16.91-10.47-5.15-21.23-8.39-32.73-10.08-7.13-1.04-14.87-2.59-21.26,2.86-25.82,22.02-43.96,50.18-52.06,83.3-3.66,14.95-5.35,29.98-5.09,45.31.09,5.33,2.63,9.36,6.59,12.43,7.37,5.71,14.04,11.6,21.15,17.7,31.94,27.39,64.78,47.28,105.35,59.06,3.39.98,6.04.66,8.01-2.49,5.85-9.38,11.66-18.69,16.77-28.61,2-3.88-5.36-12.53-7.78-15.57-.91-1.15-2.84-1.08-3.91-.08-14.08,13.08-33.34,17.83-52.25,12.73ZM223.43,268.13c3.74-3.3,4.91-7.98,3.37-12.5-8.11-23.84-10.98-42.64-8.21-67.96,1.07-9.85-2.87-18.65-10.21-24.88-4.37-3.71-9.04-6.51-13.7-9.86-3.95-2.85-7.76-5.42-12.09-7.58-13.12-6.53-27.61-6.23-40.77-.08-23.34,10.9-28.82,34.44-25.6,58.27,2.5,18.53,10.17,35.45,22.92,49.12,11.93,12.79,27.25,23.81,44.89,26.61,14.26,2.26,28.48-1.52,39.41-11.13ZM202.57,354.65l10.9-12.77c.83-.97,1.29-2.52.91-3.46s-1.44-2.13-2.73-2.56c-20.31-6.74-39.48-15.61-57.74-26.91-12.55-7.76-24.46-15.74-35.76-25.21l-28.76-24.09,4.92,20.14c3.4,13.93,11.6,25.87,23.23,34.36,9.93,7.24,20.03,13.46,30.58,19.86,14.75,8.95,29.91,16.49,45.72,23.17,3.37,1.42,6.35.25,8.71-2.52ZM233.27,385.79c18.75-22.45,35.17-42.83,47.13-69.6.65-1.44-.16-2.76-1.4-3.39l-19.73-9.95c-1.64-.83-3.71-.15-4.64,1.62-15.45,29.37-34.68,53.26-58.61,76.78,5.1,2.19,10.3,3.59,15.8,4.62l14.87,2.79c2.75.29,4.77-.7,6.58-2.88ZM185.93,366.95c-1.09-1.7-3.39-1.59-4.9-2.17-9.81-4.58-19.09-9.37-28.57-14.54s-17.45-10.59-26.57-16.37c12.89,16.94,31.91,30.81,50.44,39.99,2.47,1.23,5.38,1.19,7.39-.62,1.44-1.3,3.59-4.13,2.2-6.29ZM280.79,382.8l2.12-16.66c1.07-8.41,1.58-16.65.64-25.21l-19.44,28.46-14.45,19.05c3.57,1.16,31.85.47,31.14-5.63Z"/>
</svg>